<?xml version="1.0" encoding="UTF-8"?>
<svg xmlns="http://www.w3.org/2000/svg" xmlns:xlink="http://www.w3.org/1999/xlink" width="240pt" height="240pt" viewBox="0 0 240 240" version="1.1">
<g id="surface12954224">
<path style=" stroke:none;fill-rule:nonzero;fill:rgb(15.686275%,40.392157%,69.803922%);fill-opacity:1;" d="M 218.007812 0 L 21.992188 0 C 10 0 0 10 0 21.992188 L 0 218.007812 C 0 230 10 240 21.992188 240 L 218.007812 240 C 230 240 240 230 240 218.007812 L 240 21.992188 C 240 10 230 0 218.007812 0 Z M 70 200 L 30 200 L 30 90 L 70 90 Z M 50 76.992188 C 38.007812 76.992188 30 68.984375 30 58.984375 C 30 48.007812 38.007812 40 50 40 C 61.992188 40 70 48.007812 70 58.007812 C 70 68.984375 61.992188 76.992188 50 76.992188 Z M 210 200 L 170 200 L 170 140 C 170 123.984375 158.984375 120 156.015625 120 C 153.007812 120 140 121.992188 140 140 C 140 141.992188 140 200 140 200 L 100 200 L 100 90 L 140 90 L 140 106.015625 C 146.015625 96.992188 156.015625 90 175 90 C 193.984375 90 210 105 210 140 Z M 210 200 "/>
</g>
</svg>
